<!DOCTYPE svg PUBLIC "-//W3C//DTD SVG 1.1//EN" "http://www.w3.org/Graphics/SVG/1.1/DTD/svg11.dtd">
<!-- Uploaded to: SVG Repo, www.svgrepo.com, Transformed by: SVG Repo Mixer Tools -->
<svg width="256px" height="256px" viewBox="0 0 6.35 6.35" id="svg1976" version="1.1" xmlns="http://www.w3.org/2000/svg" xmlns:cc="http://creativecommons.org/ns#" xmlns:dc="http://purl.org/dc/elements/1.1/" xmlns:inkscape="http://www.inkscape.org/namespaces/inkscape" xmlns:rdf="http://www.w3.org/1999/02/22-rdf-syntax-ns#" xmlns:sodipodi="http://sodipodi.sourceforge.net/DTD/sodipodi-0.dtd" xmlns:svg="http://www.w3.org/2000/svg" fill="#000000" stroke="#000000">
<g id="SVGRepo_bgCarrier" stroke-width="0"/>
<g id="SVGRepo_tracerCarrier" stroke-linecap="round" stroke-linejoin="round"/>
<g id="SVGRepo_iconCarrier"> <defs id="defs1970"/> <g id="layer1" style="display:inline"> <path d="m 4.8950508,3.7044845 c -0.6607016,0 -1.1895931,0.5283747 -1.1895931,1.1890748 0,0.66069 0.5288915,1.1916585 1.1895931,1.1916585 0.660699,0 1.1911413,-0.5309685 1.1911413,-1.1916585 0,-0.6607001 -0.5304423,-1.1890748 -1.1911413,-1.1890748 z M 4.6997142,4.3700769 A 0.2645835,0.2645835 0 0 1 4.9632631,4.6356937 V 4.8997603 H 5.2288809 A 0.2645835,0.2645835 0 0 1 5.4924297,5.1653774 0.2645835,0.2645835 0 0 1 5.2288809,5.428927 H 4.6997142 A 0.26460996,0.26460996 0 0 1 4.4340964,5.1653774 V 4.6356937 A 0.2645835,0.2645835 0 0 1 4.6997142,4.3700769 Z" id="path2452" style="color:#ffffff;font-style:normal;font-variant:normal;font-weight:normal;font-stretch:normal;font-size:medium;line-height:normal;font-family:sans-serif;font-variant-ligatures:normal;font-variant-position:normal;font-variant-caps:normal;font-variant-numeric:normal;font-variant-alternates:normal;font-variant-east-asian:normal;font-feature-settings:normal;font-variation-settings:normal;text-indent:0;text-align:start;text-decoration:none;text-decoration-line:none;text-decoration-style:solid;text-decoration-color:#ffffff;letter-spacing:normal;word-spacing:normal;text-transform:none;writing-mode:lr-tb;direction:ltr;text-orientation:mixed;dominant-baseline:auto;baseline-shift:baseline;text-anchor:start;white-space:normal;shape-padding:0;shape-margin:0;inline-size:0;clip-rule:nonzero;display:inline;overflow:visible;visibility:visible;isolation:auto;mix-blend-mode:normal;color-interpolation:sRGB;color-interpolation-filters:linearRGB;solid-color:#ffffff;solid-opacity:1;vector-effect:none;fill:#ffffff;fill-opacity:1;fill-rule:nonzero;stroke:none;stroke-width:0.529167;stroke-linecap:round;stroke-linejoin:round;stroke-miterlimit:4;stroke-dasharray:none;stroke-dashoffset:0;stroke-opacity:1;paint-order:stroke fill markers;color-rendering:auto;image-rendering:auto;shape-rendering:auto;text-rendering:auto;enable-background:accumulate;stop-color:#ffffff"/> <path d="m 1.8519521,0.26478431 a 0.2645835,0.2645835 0 0 0 -0.26367,0.26367 V 1.0577543 a 0.2645835,0.2645835 0 0 0 0.26367,0.26562 0.2645835,0.2645835 0 0 0 0.26563,-0.26562 V 0.52845431 a 0.2645835,0.2645835 0 0 0 -0.26563,-0.26367 z" id="path712" style="color:#ffffff;font-style:normal;font-variant:normal;font-weight:normal;font-stretch:normal;font-size:medium;line-height:normal;font-family:sans-serif;font-variant-ligatures:normal;font-variant-position:normal;font-variant-caps:normal;font-variant-numeric:normal;font-variant-alternates:normal;font-variant-east-asian:normal;font-feature-settings:normal;font-variation-settings:normal;text-indent:0;text-align:start;text-decoration:none;text-decoration-line:none;text-decoration-style:solid;text-decoration-color:#ffffff;letter-spacing:normal;word-spacing:normal;text-transform:none;writing-mode:lr-tb;direction:ltr;text-orientation:mixed;dominant-baseline:auto;baseline-shift:baseline;text-anchor:start;white-space:normal;shape-padding:0;shape-margin:0;inline-size:0;clip-rule:nonzero;display:inline;overflow:visible;visibility:visible;isolation:auto;mix-blend-mode:normal;color-interpolation:sRGB;color-interpolation-filters:linearRGB;solid-color:#ffffff;solid-opacity:1;vector-effect:none;fill:#ffffff;fill-opacity:1;fill-rule:nonzero;stroke:none;stroke-width:0.529167;stroke-linecap:round;stroke-linejoin:miter;stroke-miterlimit:4;stroke-dasharray:none;stroke-dashoffset:0;stroke-opacity:1;color-rendering:auto;image-rendering:auto;shape-rendering:auto;text-rendering:auto;enable-background:accumulate;stop-color:#ffffff"/> <path d="m 4.2328121,0.26478431 a 0.2645835,0.2645835 0 0 0 -0.26367,0.26367 V 1.0577543 a 0.2645835,0.2645835 0 0 0 0.26367,0.26562 0.2645835,0.2645835 0 0 0 0.26563,-0.26562 V 0.52845431 a 0.2645835,0.2645835 0 0 0 -0.26563,-0.26367 z" id="path714" style="color:#ffffff;font-style:normal;font-variant:normal;font-weight:normal;font-stretch:normal;font-size:medium;line-height:normal;font-family:sans-serif;font-variant-ligatures:normal;font-variant-position:normal;font-variant-caps:normal;font-variant-numeric:normal;font-variant-alternates:normal;font-variant-east-asian:normal;font-feature-settings:normal;font-variation-settings:normal;text-indent:0;text-align:start;text-decoration:none;text-decoration-line:none;text-decoration-style:solid;text-decoration-color:#ffffff;letter-spacing:normal;word-spacing:normal;text-transform:none;writing-mode:lr-tb;direction:ltr;text-orientation:mixed;dominant-baseline:auto;baseline-shift:baseline;text-anchor:start;white-space:normal;shape-padding:0;shape-margin:0;inline-size:0;clip-rule:nonzero;display:inline;overflow:visible;visibility:visible;isolation:auto;mix-blend-mode:normal;color-interpolation:sRGB;color-interpolation-filters:linearRGB;solid-color:#ffffff;solid-opacity:1;vector-effect:none;fill:#ffffff;fill-opacity:1;fill-rule:nonzero;stroke:none;stroke-width:0.529167;stroke-linecap:round;stroke-linejoin:miter;stroke-miterlimit:4;stroke-dasharray:none;stroke-dashoffset:0;stroke-opacity:1;color-rendering:auto;image-rendering:auto;shape-rendering:auto;text-rendering:auto;enable-background:accumulate;stop-color:#ffffff"/> <path d="m 1.4456487,0.79406771 c -0.6493404,0 -1.1818408,0.53042299 -1.1818408,1.17977299 v 2.1368205 c 0,0.6493502 0.5325004,1.1813233 1.1818408,1.1813233 H 3.2248685 C 3.194235,5.1638306 3.176291,5.0308032 3.176291,4.8935593 c 0,-0.94668 0.772078,-1.7187583 1.7187598,-1.7187583 0.3405214,0 0.6576695,0.1013863 0.9255231,0.2733683 V 1.9738407 c 0,-0.64935 -0.5304208,-1.17977299 -1.1797718,-1.17977299 z M 0.8053782,1.8529179 h 4.474144 c 0.00709,0.03921 0.01188,0.079325 0.01188,0.1209228 V 2.3820845 H 0.7934852 V 1.9738407 c 0,-0.041598 0.00476,-0.081712 0.01188,-0.1209228 z M 1.588275,2.7510543 H 2.1174417 A 0.2645835,0.2645835 0 0 1 2.3809905,3.0166712 0.2645835,0.2645835 0 0 1 2.1174417,3.2802211 H 1.588275 A 0.2645835,0.2645835 0 0 1 1.3226572,3.0166712 0.2645835,0.2645835 0 0 1 1.588275,2.7510543 Z m 1.5978347,0 H 3.7152764 A 0.2645835,0.2645835 0 0 1 3.9788278,3.0166712 0.2645835,0.2645835 0 0 1 3.7152764,3.2802211 H 3.1861097 A 0.2645835,0.2645835 0 0 1 2.9204945,3.0166712 0.2645835,0.2645835 0 0 1 3.1861097,2.7510543 Z M 1.588275,3.8739832 H 2.1174417 A 0.2645835,0.2645835 0 0 1 2.3809905,4.1380498 0.2645835,0.2645835 0 0 1 2.1174417,4.4036666 H 1.588275 A 0.2645835,0.2645835 0 0 1 1.3226572,4.1380498 0.2645835,0.2645835 0 0 1 1.588275,3.8739832 Z" id="path716" style="color:#ffffff;font-style:normal;font-variant:normal;font-weight:normal;font-stretch:normal;font-size:medium;line-height:normal;font-family:sans-serif;font-variant-ligatures:normal;font-variant-position:normal;font-variant-caps:normal;font-variant-numeric:normal;font-variant-alternates:normal;font-variant-east-asian:normal;font-feature-settings:normal;font-variation-settings:normal;text-indent:0;text-align:start;text-decoration:none;text-decoration-line:none;text-decoration-style:solid;text-decoration-color:#ffffff;letter-spacing:normal;word-spacing:normal;text-transform:none;writing-mode:lr-tb;direction:ltr;text-orientation:mixed;dominant-baseline:auto;baseline-shift:baseline;text-anchor:start;white-space:normal;shape-padding:0;shape-margin:0;inline-size:0;clip-rule:nonzero;display:inline;overflow:visible;visibility:visible;isolation:auto;mix-blend-mode:normal;color-interpolation:sRGB;color-interpolation-filters:linearRGB;solid-color:#ffffff;solid-opacity:1;vector-effect:none;fill:#ffffff;fill-opacity:1;fill-rule:nonzero;stroke:none;stroke-width:0.529167;stroke-linecap:round;stroke-linejoin:round;stroke-miterlimit:4;stroke-dasharray:none;stroke-dashoffset:0;stroke-opacity:1;paint-order:stroke fill markers;color-rendering:auto;image-rendering:auto;shape-rendering:auto;text-rendering:auto;enable-background:accumulate;stop-color:#ffffff"/> </g> </g>
</svg>